<?xml version="1.0" encoding="UTF-8"?>
<!DOCTYPE svg PUBLIC "-//W3C//DTD SVG 1.1//EN" "http://www.w3.org/Graphics/SVG/1.1/DTD/svg11.dtd">
<svg xmlns="http://www.w3.org/2000/svg" version="1.1" width="68px" height="68px" style="shape-rendering:geometricPrecision; text-rendering:geometricPrecision; image-rendering:optimizeQuality; fill-rule:evenodd; clip-rule:evenodd" xmlns:xlink="http://www.w3.org/1999/xlink">
<g><path style="opacity:0.867" fill="#000000" d="M 28.5,-0.5 C 31.8333,-0.5 35.1667,-0.5 38.5,-0.5C 53.846,3.51264 63.5126,13.1793 67.5,28.5C 67.5,31.8333 67.5,35.1667 67.5,38.5C 63.4874,53.846 53.8207,63.5126 38.5,67.5C 35.1667,67.5 31.8333,67.5 28.5,67.5C 13.154,63.4874 3.48736,53.8207 -0.5,38.5C -0.5,35.1667 -0.5,31.8333 -0.5,28.5C 3.51264,13.154 13.1793,3.48736 28.5,-0.5 Z M 27.5,7.5 C 49.9682,6.46776 60.4682,17.1344 59,39.5C 54.1957,54.9385 43.6957,61.4385 27.5,59C 12.0615,54.1957 5.56147,43.6957 8,27.5C 10.6733,16.9945 17.1733,10.3278 27.5,7.5 Z"/></g>
<g><path style="opacity:0.833" fill="#000000" d="M 46.5,20.5 C 49.648,21.4735 51.4813,23.4735 52,26.5C 44.3333,34.1667 36.6667,41.8333 29,49.5C 23.9849,44.6519 19.1515,39.6519 14.5,34.5C 15.8333,32.5 17.5,30.8333 19.5,29.5C 22.8178,32.3172 25.9845,35.3172 29,38.5C 35.0362,32.6314 40.8695,26.6314 46.5,20.5 Z"/></g>
</svg>
