<?xml version="1.0" encoding="UTF-8"?>
<!DOCTYPE svg PUBLIC "-//W3C//DTD SVG 1.1//EN" "http://www.w3.org/Graphics/SVG/1.1/DTD/svg11.dtd">
<svg xmlns="http://www.w3.org/2000/svg" version="1.1" width="68px" height="68px" style="shape-rendering:geometricPrecision; text-rendering:geometricPrecision; image-rendering:optimizeQuality; fill-rule:evenodd; clip-rule:evenodd" xmlns:xlink="http://www.w3.org/1999/xlink">
<g><path style="opacity:0.866" fill="#000000" d="M 30.5,-0.5 C 32.1667,-0.5 33.8333,-0.5 35.5,-0.5C 46.14,9.80585 56.8067,20.1392 67.5,30.5C 67.5,32.1667 67.5,33.8333 67.5,35.5C 57.1667,46.5 46.5,57.1667 35.5,67.5C 34.1667,67.5 32.8333,67.5 31.5,67.5C 19.8333,57.8333 9.16667,47.1667 -0.5,35.5C -0.5,34.1667 -0.5,32.8333 -0.5,31.5C 9.13396,20.1987 19.4673,9.53202 30.5,-0.5 Z M 32.5,7.5 C 41.479,15.8123 50.1457,24.479 58.5,33.5C 50.1811,42.3191 41.6811,50.9858 33,59.5C 24.3189,50.9858 15.8189,42.3191 7.5,33.5C 15.8547,24.8127 24.1881,16.1461 32.5,7.5 Z"/></g>
<g><path style="opacity:0.803" fill="#000000" d="M 29.5,16.5 C 32.1667,16.5 34.8333,16.5 37.5,16.5C 37.5,23.5 37.5,30.5 37.5,37.5C 34.8333,37.5 32.1667,37.5 29.5,37.5C 29.5,30.5 29.5,23.5 29.5,16.5 Z"/></g>
<g><path style="opacity:0.668" fill="#000000" d="M 31.5,39.5 C 37.4877,39.664 38.821,42.164 35.5,47C 29.4034,47.1475 28.0701,44.6475 31.5,39.5 Z"/></g>
</svg>
